<?xml version="1.0" encoding="utf-8"?>
<!-- Generator: Adobe Illustrator 18.1.1, SVG Export Plug-In . SVG Version: 6.00 Build 0)  -->
<svg version="1.1" id="Layer_1" xmlns="http://www.w3.org/2000/svg" xmlns:xlink="http://www.w3.org/1999/xlink" x="0px" y="0px"
	 width="800px" height="800px" viewBox="0 0 800 800" enable-background="new 0 0 800 800" xml:space="preserve">
<path d="M-1463.8,584.2h-35.2c-4.5,0-8.2-3.8-7.9-8.3c1.6-33.5,12.4-59.4,25.6-59.4s24,25.9,25.6,59.4
	C-1455.7,580.4-1459.3,584.2-1463.8,584.2z M-1412.8,516.5c-13.1,0-24,25.9-25.6,59.4c-0.2,4.5,3.4,8.3,7.9,8.3h35.2
	c4.5,0,8.2-3.8,7.9-8.3C-1388.8,542.5-1399.6,516.5-1412.8,516.5z M-1344.1,516.5c-13.1,0-24,25.9-25.6,59.4
	c-0.2,4.5,3.4,8.3,7.9,8.3h35.2c4.5,0,8.2-3.8,7.9-8.3C-1320.1,542.5-1330.9,516.5-1344.1,516.5z M-1275.4,516.5
	c-13.1,0-24,25.9-25.6,59.4c-0.2,4.5,3.4,8.3,7.9,8.3h35.2c4.5,0,8.2-3.8,7.9-8.3C-1251.4,542.5-1262.3,516.5-1275.4,516.5z
	 M-1206.8,516.5c-13.1,0-24,25.9-25.6,59.4c-0.2,4.5,3.4,8.3,7.9,8.3h35.2c4.5,0,8.2-3.8,7.9-8.3
	C-1182.8,542.5-1193.6,516.5-1206.8,516.5z M-1206.8,674.6c13.1,0,24-25.9,25.6-59.4c0.2-4.5-3.4-8.3-7.9-8.3h-35.2
	c-4.5,0-8.2,3.8-7.9,8.3C-1230.8,648.7-1219.9,674.6-1206.8,674.6z M-1275.4,674.6c13.1,0,24-25.9,25.6-59.4
	c0.2-4.5-3.4-8.3-7.9-8.3h-35.2c-4.5,0-8.2,3.8-7.9,8.3C-1299.4,648.7-1288.6,674.6-1275.4,674.6z M-1344.1,674.6
	c13.1,0,24-25.9,25.6-59.4c0.2-4.5-3.4-8.3-7.9-8.3h-35.2c-4.5,0-8.2,3.8-7.9,8.3C-1368.1,648.7-1357.2,674.6-1344.1,674.6z
	 M-1412.8,674.6c13.1,0,24-25.9,25.6-59.4c0.2-4.5-3.4-8.3-7.9-8.3h-35.2c-4.5,0-8.2,3.8-7.9,8.3
	C-1436.7,648.7-1425.9,674.6-1412.8,674.6z M-1481.4,674.6c13.1,0,24-25.9,25.6-59.4c0.2-4.5-3.4-8.3-7.9-8.3h-35.2
	c-4.5,0-8.2,3.8-7.9,8.3C-1505.4,648.7-1494.6,674.6-1481.4,674.6z M-1291,395.4l-42.6-42.6c-5.9-5.9-15.4-5.9-21.2,0l-44.4,44.4
	c-6.5,6.2-10.4,15.1-9.9,24.9c0.8,16.7,14.5,30.3,31.2,30.9c9.7,0.4,18.5-3.5,24.7-9.9c5.7-5.9,9.1-13.8,9.1-22.6
	c0,8.7,3.4,16.7,9.1,22.5c5.9,6.2,14.2,10,23.5,10c18,0,32.5-14.6,32.5-32.5C-1279,410.5-1283.1,402.8-1291,395.4z M-1709.1,185.4
	c-16.7,22.8-26.6,50.9-26.6,81.3c0,75.9,61.5,137.5,137.5,137.5c65.9,0,120.9-46.3,134.3-108.2
	C-1561.3,295.2-1648.7,252.6-1709.1,185.4z M-1224.3,296.1c13.4,61.8,68.5,108.2,134.3,108.2c75.9,0,137.5-61.6,137.5-137.5
	c0-30.4-9.9-58.6-26.6-81.3C-1039.5,252.6-1126.9,295.2-1224.3,296.1z"/>
<path d="M-423,395.4l-42.6-42.6c-5.9-5.9-15.4-5.9-21.2,0l-44.4,44.4c-6.5,6.2-10.4,15.1-9.9,24.9c0.8,16.7,14.5,30.3,31.2,30.9
	c9.7,0.4,18.5-3.5,24.7-9.9c5.7-5.9,9.1-13.8,9.1-22.6c0,8.7,3.4,16.7,9.1,22.5c5.9,6.2,14.2,10,23.5,10c18,0,32.5-14.6,32.5-32.5
	C-411,410.5-415.1,402.8-423,395.4z M-866.5,294.7c4.3,27.9,17.2,54.8,38.7,76.4c53.7,53.7,140.7,53.7,194.4,0
	c46.6-46.6,52.7-118.2,18.5-171.5C-684.3,267.8-776.2,299.5-866.5,294.7z M-337.3,199.6c-34.2,53.2-28.1,124.9,18.5,171.5
	c53.7,53.7,140.7,53.7,194.4,0c21.5-21.5,34.4-48.4,38.7-76.4C-176,299.5-267.9,267.8-337.3,199.6z M-591,579.5
	c-6.7,6.6-12.2,13.2-16.8,19.2c-1.2,1.6-3.9,0.8-3.9-1.3c0,0,0,0,0-0.1c0-14.1,12.9-36.2,34.3-55.9c1.2-1.1,3-0.6,3.5,0.9l5.3,16.7
	c0.3,0.9-0.1,1.9-0.8,2.4C-577.8,567.5-585,573.7-591,579.5z M-561.7,580.5l3.5,10.9c0.4,1.1-0.2,2.3-1.3,2.7
	c-9.3,3.3-17.5,6.5-24.6,8.9c-2.1,0.7-3.7-1.8-2.3-3.4c2.3-2.6,4.8-5.2,7.4-7.9c4.5-4.4,9.2-8.5,14-12.2
	C-563.9,578.5-562.2,579.1-561.7,580.5z M-527.4,541c-8.5,2.7-16.2,5.9-23.4,9.6c-1.2,0.6-2.6,0-3-1.3l-6.4-19.9
	c-0.3-0.9,0-1.9,0.8-2.4c8.2-5.8,17.2-11,26.8-15.4c1.3-0.6,2.8,0.2,3,1.7l3.7,25.4C-525.8,539.7-526.4,540.7-527.4,541z
	 M-522.9,559.9l2.9,20.2c0.2,1.1-0.6,2.1-1.6,2.4c-6.2,1.5-12.1,3.1-17.8,4.9c-1.1,0.3-2.3-0.3-2.7-1.4l-5.2-16.2
	c-0.3-1,0.1-2.1,1-2.5c6.6-3.6,13.5-6.6,20.6-9C-524.4,557.7-523.1,558.6-522.9,559.9z M-511.9,503.9c8.1-2.3,16.4-3.9,25-4.6
	c1.2-0.1,2.3,0.9,2.3,2.1v29.9c0,1.1-0.9,2.1-2,2.1c-7.1,0.4-13.9,1.3-20.3,2.4c-1.2,0.2-2.3-0.6-2.5-1.8l-4-27.8
	C-513.6,505.2-512.9,504.2-511.9,503.9z M-504.7,552.7c5.8-1.1,11.7-1.8,17.8-2.2c1.2-0.1,2.3,0.9,2.3,2.2V575c0,1.1-0.9,2.1-2,2.1
	c-4.8,0.3-9.6,0.8-14.2,1.4c-1.2,0.2-2.3-0.6-2.4-1.8l-3.1-21.7C-506.6,554-505.8,552.9-504.7,552.7z M-465.3,550.4
	c6.1,0.3,12,1,17.8,2c1.1,0.2,1.9,1.3,1.8,2.4l-3.2,22c-0.2,1.2-1.3,2-2.4,1.8c-4.7-0.7-9.4-1.1-14.2-1.4c-1.1-0.1-2-1-2-2.1v-22.5
	C-467.6,551.3-466.6,550.3-465.3,550.4z M-438.7,506.3l-3.9,27.4c-0.2,1.2-1.3,2-2.5,1.8c-6.5-1.1-13.3-1.8-20.4-2.2
	c-1.1-0.1-2.1-1-2.1-2.1v-29.8c0-1.3,1.1-2.3,2.3-2.1c8.6,0.7,16.9,2.3,25,4.6C-439.2,504.2-438.6,505.2-438.7,506.3z M-426.4,557.4
	c7.2,2.3,14.1,5.2,20.8,8.6c0.9,0.5,1.4,1.6,1.1,2.6l-5.6,17.4c-0.4,1.1-1.5,1.7-2.7,1.4c-5.7-1.7-11.7-3.4-17.8-4.9
	c-1.1-0.3-1.8-1.3-1.6-2.4l3-21C-429,557.9-427.7,557-426.4,557.4z M-392,529.4l-6,18.8c-0.4,1.2-1.8,1.8-3,1.3
	c-7.3-3.5-15.1-6.6-23.6-9.1c-1-0.3-1.7-1.3-1.5-2.4l3.6-24.7c0.2-1.4,1.7-2.2,3-1.7c9.6,4.4,18.5,9.6,26.8,15.4
	C-392,527.5-391.7,528.5-392,529.4z M-362.1,604.8c-8.2-2.4-18.6-6.5-30.5-10.7c-1.1-0.4-1.7-1.6-1.3-2.7l4.1-12.9
	c0.4-1.4,2.1-1.9,3.3-1.1c5.8,4.1,11.5,8.8,16.9,13.8c3.6,3.4,6.8,6.7,9.8,10C-358.5,602.9-360,605.4-362.1,604.8z M-341.4,590.4
	c-4.2,2.1,0.5-0.2-3.7,1.9c-3.6-4.2-7.8-8.6-12.4-12.9c-6.7-6.4-15-13.2-24.7-19.5c-0.8-0.5-1.2-1.5-0.9-2.5l4.8-15
	c0.5-1.5,2.4-2,3.5-0.9C-356.8,558.2-344.7,576.6-341.4,590.4z"/>
<path d="M280.3,584.2h-35.2c-4.5,0-8.2-3.8-7.9-8.3c1.6-33.5,12.4-59.4,25.6-59.4s24,25.9,25.6,59.4
	C288.4,580.4,284.8,584.2,280.3,584.2z M331.3,516.5c-13.1,0-24,25.9-25.6,59.4c-0.2,4.5,3.4,8.3,7.9,8.3h35.2
	c4.5,0,8.2-3.8,7.9-8.3C355.3,542.5,344.5,516.5,331.3,516.5z M400,516.5c-13.1,0-24,25.9-25.6,59.4c-0.2,4.5,3.4,8.3,7.9,8.3h35.2
	c4.5,0,8.2-3.8,7.9-8.3C424,542.5,413.1,516.5,400,516.5z M468.7,516.5c-13.1,0-24,25.9-25.6,59.4c-0.2,4.5,3.4,8.3,7.9,8.3h35.2
	c4.5,0,8.2-3.8,7.9-8.3C492.7,542.5,481.8,516.5,468.7,516.5z M537.3,516.5c-13.1,0-24,25.9-25.6,59.4c-0.2,4.5,3.4,8.3,7.9,8.3
	h35.2c4.5,0,8.2-3.8,7.9-8.3C561.3,542.5,550.5,516.5,537.3,516.5z M537.3,674.6c13.1,0,24-25.9,25.6-59.4c0.2-4.5-3.4-8.3-7.9-8.3
	h-35.2c-4.5,0-8.2,3.8-7.9,8.3C513.3,648.7,524.2,674.6,537.3,674.6z M468.7,674.6c13.1,0,24-25.9,25.6-59.4
	c0.2-4.5-3.4-8.3-7.9-8.3h-35.2c-4.5,0-8.2,3.8-7.9,8.3C444.7,648.7,455.5,674.6,468.7,674.6z M400,674.6c13.1,0,24-25.9,25.6-59.4
	c0.2-4.5-3.4-8.3-7.9-8.3h-35.2c-4.5,0-8.2,3.8-7.9,8.3C376,648.7,386.9,674.6,400,674.6z M331.3,674.6c13.1,0,24-25.9,25.6-59.4
	c0.2-4.5-3.4-8.3-7.9-8.3h-35.2c-4.5,0-8.2,3.8-7.9,8.3C307.3,648.7,318.2,674.6,331.3,674.6z M262.7,674.6
	c13.1,0,24-25.9,25.6-59.4c0.2-4.5-3.4-8.3-7.9-8.3h-35.2c-4.5,0-8.2,3.8-7.9,8.3C238.7,648.7,249.5,674.6,262.7,674.6z
	 M453.1,395.4l-42.6-42.6c-5.9-5.9-15.4-5.9-21.2,0l-44.4,44.4c-6.5,6.2-10.4,15.1-9.9,24.9c0.8,16.7,14.5,30.3,31.2,30.9
	c9.7,0.4,18.5-3.5,24.7-9.9c5.7-5.9,9.1-13.8,9.1-22.6c0,8.7,3.4,16.7,9.1,22.5c5.9,6.2,14.2,10,23.5,10c18,0,32.5-14.6,32.5-32.5
	C465,410.5,461,402.8,453.1,395.4z M271.2,199.6c-69.5,68.2-161.3,99.9-251.6,95.1c4.3,27.9,17.2,54.8,38.7,76.4
	c3.7,3.7,7.6,7.2,11.7,10.4c57.8-64.8,133.8-112.9,220-136.4C286.6,229.1,280.3,213.7,271.2,199.6z M528.8,199.6
	c-9.1,14.1-15.3,29.5-18.7,45.5c86.2,23.5,162.2,71.7,220,136.4c4-3.2,7.9-6.7,11.7-10.4c21.5-21.5,34.4-48.4,38.7-76.4
	C690.1,299.5,598.2,267.8,528.8,199.6z"/>
</svg>
