<?xml version="1.0" encoding="utf-8"?>
<!-- Generator: Adobe Illustrator 18.1.1, SVG Export Plug-In . SVG Version: 6.00 Build 0)  -->
<svg version="1.1" id="Layer_1" xmlns="http://www.w3.org/2000/svg" xmlns:xlink="http://www.w3.org/1999/xlink" x="0px" y="0px"
	 width="800px" height="800px" viewBox="0 0 800 800" enable-background="new 0 0 800 800" xml:space="preserve">
<path d="M280.3,584.2h-35.2c-4.5,0-8.2-3.8-7.9-8.3c1.6-33.5,12.4-59.4,25.6-59.4s24,25.9,25.6,59.4
	C288.4,580.4,284.8,584.2,280.3,584.2z M331.3,516.5c-13.1,0-24,25.9-25.6,59.4c-0.2,4.5,3.4,8.3,7.9,8.3h35.2
	c4.5,0,8.2-3.8,7.9-8.3C355.3,542.5,344.5,516.5,331.3,516.5z M400,516.5c-13.1,0-24,25.9-25.6,59.4c-0.2,4.5,3.4,8.3,7.9,8.3h35.2
	c4.5,0,8.2-3.8,7.9-8.3C424,542.5,413.1,516.5,400,516.5z M468.7,516.5c-13.1,0-24,25.9-25.6,59.4c-0.2,4.5,3.4,8.3,7.9,8.3h35.2
	c4.5,0,8.2-3.8,7.9-8.3C492.7,542.5,481.8,516.5,468.7,516.5z M537.3,516.5c-13.1,0-24,25.9-25.6,59.4c-0.2,4.5,3.4,8.3,7.9,8.3
	h35.2c4.5,0,8.2-3.8,7.9-8.3C561.3,542.5,550.5,516.5,537.3,516.5z M537.3,674.6c13.1,0,24-25.9,25.6-59.4c0.2-4.5-3.4-8.3-7.9-8.3
	h-35.2c-4.5,0-8.2,3.8-7.9,8.3C513.3,648.7,524.2,674.6,537.3,674.6z M468.7,674.6c13.1,0,24-25.9,25.6-59.4
	c0.2-4.5-3.4-8.3-7.9-8.3h-35.2c-4.5,0-8.2,3.8-7.9,8.3C444.7,648.7,455.5,674.6,468.7,674.6z M400,674.6c13.1,0,24-25.9,25.6-59.4
	c0.2-4.5-3.4-8.3-7.9-8.3h-35.2c-4.5,0-8.2,3.8-7.9,8.3C376,648.7,386.9,674.6,400,674.6z M331.3,674.6c13.1,0,24-25.9,25.6-59.4
	c0.2-4.5-3.4-8.3-7.9-8.3h-35.2c-4.5,0-8.2,3.8-7.9,8.3C307.3,648.7,318.2,674.6,331.3,674.6z M262.7,674.6
	c13.1,0,24-25.9,25.6-59.4c0.2-4.5-3.4-8.3-7.9-8.3h-35.2c-4.5,0-8.2,3.8-7.9,8.3C238.7,648.7,249.5,674.6,262.7,674.6z
	 M453.1,395.4l-42.6-42.6c-5.9-5.9-15.4-5.9-21.2,0l-44.4,44.4c-6.5,6.2-10.4,15.1-9.9,24.9c0.8,16.7,14.5,30.3,31.2,30.9
	c9.7,0.4,18.5-3.5,24.7-9.9c5.7-5.9,9.1-13.8,9.1-22.6c0,8.7,3.4,16.7,9.1,22.5c5.9,6.2,14.2,10,23.5,10c18,0,32.5-14.6,32.5-32.5
	C465,410.5,461,402.8,453.1,395.4z M271.2,199.6c-69.5,68.2-161.3,99.9-251.6,95.1c4.3,27.9,17.2,54.8,38.7,76.4
	c3.7,3.7,7.6,7.2,11.7,10.4c57.8-64.8,133.8-112.9,220-136.4C286.6,229.1,280.3,213.7,271.2,199.6z M528.8,199.6
	c-9.1,14.1-15.3,29.5-18.7,45.5c86.2,23.5,162.2,71.7,220,136.4c4-3.2,7.9-6.7,11.7-10.4c21.5-21.5,34.4-48.4,38.7-76.4
	C690.1,299.5,598.2,267.8,528.8,199.6z"/>
</svg>
