<?xml version="1.0" encoding="utf-8"?>
<!-- Generator: Adobe Illustrator 18.1.1, SVG Export Plug-In . SVG Version: 6.00 Build 0)  -->
<svg version="1.1" id="Layer_1" xmlns="http://www.w3.org/2000/svg" xmlns:xlink="http://www.w3.org/1999/xlink" x="0px" y="0px"
	 width="800px" height="800px" viewBox="0 0 800 800" enable-background="new 0 0 800 800" xml:space="preserve">
<path d="M453.1,395.4l-42.6-42.6c-5.9-5.9-15.4-5.9-21.2,0l-44.4,44.4c-6.5,6.2-10.4,15.1-9.9,24.9c0.8,16.7,14.5,30.3,31.2,30.9
	c9.7,0.4,18.5-3.5,24.7-9.9c5.7-5.9,9.1-13.8,9.1-22.6c0,8.7,3.4,16.7,9.1,22.5c5.9,6.2,14.2,10,23.5,10c18,0,32.5-14.6,32.5-32.5
	C465,410.5,461,402.8,453.1,395.4z M9.6,294.7c4.3,27.9,17.2,54.8,38.7,76.4c53.7,53.7,140.7,53.7,194.4,0
	c46.6-46.6,52.7-118.2,18.5-171.5C191.8,267.8,99.9,299.5,9.6,294.7z M538.8,199.6c-34.2,53.2-28.1,124.9,18.5,171.5
	c53.7,53.7,140.7,53.7,194.4,0c21.5-21.5,34.4-48.4,38.7-76.4C700.1,299.5,608.2,267.8,538.8,199.6z M285.1,579.5
	c-6.7,6.6-12.2,13.2-16.8,19.2c-1.2,1.6-3.9,0.8-3.9-1.3c0,0,0,0,0-0.1c0-14.1,12.9-36.2,34.3-55.9c1.2-1.1,3-0.6,3.5,0.9l5.3,16.7
	c0.3,0.9-0.1,1.9-0.8,2.4C298.2,567.5,291.1,573.7,285.1,579.5z M314.4,580.5l3.5,10.9c0.4,1.1-0.2,2.3-1.3,2.7
	c-9.3,3.3-17.5,6.5-24.6,8.9c-2.1,0.7-3.7-1.8-2.3-3.4c2.3-2.6,4.8-5.2,7.4-7.9c4.5-4.4,9.2-8.5,14-12.2
	C312.2,578.5,313.9,579.1,314.4,580.5z M348.7,541c-8.5,2.7-16.2,5.9-23.4,9.6c-1.2,0.6-2.6,0-3-1.3l-6.4-19.9
	c-0.3-0.9,0-1.9,0.8-2.4c8.2-5.8,17.2-11,26.8-15.4c1.3-0.6,2.8,0.2,3,1.7l3.7,25.4C350.3,539.7,349.7,540.7,348.7,541z
	 M353.2,559.9l2.9,20.2c0.2,1.1-0.6,2.1-1.6,2.4c-6.2,1.5-12.1,3.1-17.8,4.9c-1.1,0.3-2.3-0.3-2.7-1.4l-5.2-16.2
	c-0.3-1,0.1-2.1,1-2.5c6.6-3.6,13.5-6.6,20.6-9C351.7,557.7,353,558.6,353.2,559.9z M364.2,503.9c8.1-2.3,16.4-3.9,25-4.6
	c1.2-0.1,2.3,0.9,2.3,2.1v29.9c0,1.1-0.9,2.1-2,2.1c-7.1,0.4-13.9,1.3-20.3,2.4c-1.2,0.2-2.3-0.6-2.5-1.8l-4-27.8
	C362.5,505.2,363.1,504.2,364.2,503.9z M371.4,552.7c5.8-1.1,11.7-1.8,17.8-2.2c1.2-0.1,2.3,0.9,2.3,2.2V575c0,1.1-0.9,2.1-2,2.1
	c-4.8,0.3-9.6,0.8-14.2,1.4c-1.2,0.2-2.3-0.6-2.4-1.8l-3.1-21.7C369.5,554,370.3,552.9,371.4,552.7z M410.8,550.4
	c6.1,0.3,12,1,17.8,2c1.1,0.2,1.9,1.3,1.8,2.4l-3.2,22c-0.2,1.2-1.3,2-2.4,1.8c-4.7-0.7-9.4-1.1-14.2-1.4c-1.1-0.1-2-1-2-2.1v-22.5
	C408.5,551.3,409.5,550.3,410.8,550.4z M437.4,506.3l-3.9,27.4c-0.2,1.2-1.3,2-2.5,1.8c-6.5-1.1-13.3-1.8-20.4-2.2
	c-1.1-0.1-2.1-1-2.1-2.1v-29.8c0-1.3,1.1-2.3,2.3-2.1c8.6,0.7,16.9,2.3,25,4.6C436.9,504.2,437.5,505.2,437.4,506.3z M449.7,557.4
	c7.2,2.3,14.1,5.2,20.8,8.6c0.9,0.5,1.4,1.6,1.1,2.6L466,586c-0.4,1.1-1.5,1.7-2.7,1.4c-5.7-1.7-11.7-3.4-17.8-4.9
	c-1.1-0.3-1.8-1.3-1.6-2.4l3-21C447.1,557.9,448.4,557,449.7,557.4z M484.1,529.4l-6,18.8c-0.4,1.2-1.8,1.8-3,1.3
	c-7.3-3.5-15.1-6.6-23.6-9.1c-1-0.3-1.7-1.3-1.5-2.4l3.6-24.7c0.2-1.4,1.7-2.2,3-1.7c9.6,4.4,18.5,9.6,26.8,15.4
	C484.1,527.5,484.4,528.5,484.1,529.4z M514,604.8c-8.2-2.4-18.6-6.5-30.5-10.7c-1.1-0.4-1.7-1.6-1.3-2.7l4.1-12.9
	c0.4-1.4,2.1-1.9,3.3-1.1c5.8,4.1,11.5,8.8,16.9,13.8c3.6,3.4,6.8,6.7,9.8,10C517.6,602.9,516,605.4,514,604.8z M534.6,590.4
	c-4.2,2.1,0.5-0.2-3.7,1.9c-3.6-4.2-7.8-8.6-12.4-12.9c-6.7-6.4-15-13.2-24.7-19.5c-0.8-0.5-1.2-1.5-0.9-2.5l4.8-15
	c0.5-1.5,2.4-2,3.5-0.9C519.3,558.2,531.4,576.6,534.6,590.4z"/>
</svg>
